# xmcd CD Database Entry
#
# Track frame offsets:
# 180
# 20207
# 43305
# 62432
# 89996
# 106965
# 128018
# 155105
# 174311
# 196436
# 216905
#
# Disc length: 3124 seconds
#
# Revision: 1
# Processed by: cddbd v1.4PL0 Copyright (c) Steve Scherf et al.
# Submitted via: tcd 2.0b
#
DISCID=a40c320b
DTITLE=da Bone Tones
DYEAR=1900
DGENRE=
TTITLE0=Mean Ol Dog
TTITLE1=Gimme Wa
TTITLE2=Too Many Gingers
TTITLE3=Butterfly Wings
TTITLE4=Hilary
TTITLE5=Da Nike
TTITLE6=Delicious
TTITLE7=Animal
TTITLE8=Preacher Man
TTITLE9=Machine
TTITLE10=Dog Blues
EXTD=Uncle George's Super Funkelastic Buttery Fantastic Big and Bo
EXTD=mbastic Damn I Think I Past It Sure Fire Plan to Make You Mov
EXTD=e!!! 
EXTT0=
EXTT1=
EXTT2=
EXTT3=
EXTT4=
EXTT5=
EXTT6=
EXTT7=
EXTT8=
EXTT9=
EXTT10=
PLAYORDER=
